<?xml version="1.0" encoding="UTF-8"?><svg id="Layer_2" xmlns="http://www.w3.org/2000/svg" viewBox="0 0 1065.85 204.72"><defs><style>.cls-1{fill:none;}.cls-2{fill:#002a3a;}.cls-3{fill:#02534c;}.cls-4{fill:#78be43;}</style></defs><g id="Layer_1-2"><path class="cls-2" d="m274.51,101.16l6.75-14.97c7.24,5.28,18.04,8.96,28.35,8.96,11.78,0,16.57-3.93,16.57-9.21,0-16.08-49.95-5.03-49.95-36.94,0-14.6,11.78-26.75,36.2-26.75,10.8,0,21.85,2.58,29.82,7.61l-6.14,15.1c-7.98-4.54-16.2-6.75-23.81-6.75-11.78,0-16.32,4.42-16.32,9.82,0,15.83,49.95,4.91,49.95,36.45,0,14.36-11.9,26.63-36.45,26.63-13.62,0-27.37-4.05-34.98-9.94Z"/><path class="cls-2" d="m384.1,23.72h19.88v85.91h-19.88V23.72Z"/><path class="cls-2" d="m527.69,23.72v85.91h-16.32l-42.83-52.16v52.16h-19.64V23.72h16.45l42.71,52.16V23.72h19.64Z"/><path class="cls-2" d="m639.13,93.67v15.95h-66.52V23.72h64.92v15.95h-45.16v18.65h39.89v15.46h-39.89v19.88h46.76Z"/><path class="cls-2" d="m734.24,109.63l-16.57-23.93h-18.29v23.93h-19.88V23.72h37.19c22.95,0,37.31,11.9,37.31,31.17,0,12.89-6.5,22.34-17.67,27.12l19.27,27.61h-21.35Zm-18.65-69.71h-16.2v29.95h16.2c12.15,0,18.29-5.65,18.29-14.97s-6.14-14.97-18.29-14.97Z"/><path class="cls-2" d="m852.31,65.32h18.16v34.85c-9.45,7.12-22.46,10.92-34.73,10.92-27,0-46.88-18.53-46.88-44.43s19.88-44.43,47.25-44.43c15.1,0,27.61,5.15,35.96,14.85l-12.76,11.78c-6.26-6.63-13.5-9.7-22.21-9.7-16.69,0-28.1,11.17-28.1,27.49s11.41,27.49,27.86,27.49c5.4,0,10.43-.98,15.46-3.68v-25.16Z"/><path class="cls-2" d="m913.43,23.72h19.88v85.91h-19.88V23.72Z"/><path class="cls-2" d="m1034.8,91.22h-39.89l-7.61,18.41h-20.37l38.29-85.91h19.64l38.41,85.91h-20.86l-7.61-18.41Zm-6.26-15.09l-13.62-32.89-13.62,32.89h27.25Z"/><path class="cls-2" d="m299.97,179.21c-1.36,1.75-3.07,3.07-5.14,3.95s-4.33,1.33-6.78,1.33c-4.17,0-7.44-1.4-9.83-4.19-2.38-2.79-3.62-6.66-3.71-11.61v-9.88c0-5.19,1.13-9.17,3.39-11.93,2.26-2.76,5.49-4.15,9.67-4.15,3.74,0,6.67,1.03,8.79,3.1s3.31,5.04,3.57,8.93h-3.18c-.33-3.13-1.25-5.41-2.75-6.85-1.5-1.44-3.63-2.16-6.41-2.16-3.31,0-5.79,1.1-7.44,3.31-1.65,2.21-2.47,5.44-2.47,9.7v9.38c0,4.24.91,7.54,2.72,9.88,1.81,2.34,4.36,3.52,7.63,3.52,3.55,0,6.46-1.13,8.71-3.38v-10.58h-8.9v-2.99h12.11v14.63Z"/><path class="cls-2" d="m339.51,164.47h-15.77v16.5h18.14v2.96h-21.33v-40.64h21.19v3.01h-18v15.21h15.77v2.96Z"/><path class="cls-2" d="m379.5,173.93c0-2.27-.65-4.06-1.94-5.36s-3.71-2.55-7.24-3.74c-3.54-1.19-6.13-2.52-7.79-3.99-2.18-1.92-3.27-4.45-3.27-7.59s1.07-5.64,3.21-7.59,4.9-2.93,8.29-2.93,6.29,1.14,8.49,3.41c2.2,2.27,3.29,5.19,3.29,8.76h-3.21c0-2.74-.77-4.95-2.3-6.63-1.54-1.68-3.62-2.53-6.27-2.53s-4.59.69-6.07,2.08c-1.48,1.39-2.22,3.18-2.22,5.37,0,2.05.7,3.72,2.09,5.02,1.4,1.3,3.62,2.46,6.67,3.48,3.05,1.01,5.36,2.07,6.92,3.15,1.56,1.09,2.72,2.37,3.46,3.84s1.12,3.2,1.12,5.19c0,3.18-1.07,5.75-3.22,7.69s-4.99,2.92-8.53,2.92c-2.38,0-4.55-.49-6.52-1.47-1.96-.98-3.5-2.38-4.61-4.21-1.11-1.83-1.66-4-1.66-6.49h3.18c0,2.87.87,5.12,2.6,6.75s4.07,2.46,7.01,2.46c2.57,0,4.63-.69,6.18-2.07s2.33-3.22,2.33-5.53Z"/><path class="cls-2" d="m424.65,146.3h-11.56v37.63h-3.21v-37.63h-11.53v-3.01h26.29v3.01Z"/><path class="cls-2" d="m446.39,183.92h-3.18v-40.64h3.18v40.64Z"/><path class="cls-2" d="m493.21,168.01c0,5.25-1.15,9.3-3.45,12.17-2.3,2.87-5.52,4.3-9.67,4.3s-7.34-1.43-9.67-4.3c-2.34-2.87-3.51-6.89-3.53-12.09v-8.85c0-5.23,1.16-9.29,3.49-12.18,2.33-2.89,5.54-4.34,9.66-4.34s7.41,1.45,9.71,4.35c2.31,2.9,3.46,6.99,3.46,12.25v8.68Zm-3.21-8.82c0-4.45-.86-7.79-2.57-10.02-1.71-2.23-4.18-3.35-7.4-3.35s-5.54,1.09-7.29,3.28-2.64,5.46-2.68,9.81v9.1c0,4.47.88,7.82,2.65,10.06,1.77,2.24,4.22,3.36,7.37,3.36s5.7-1.12,7.38-3.35c1.68-2.23,2.53-5.59,2.53-10.08v-8.82Zm-6.62-27.24h4.05l-6.45,7.84h-2.93s5.33-7.84,5.33-7.84Z"/><path class="cls-2" d="m538.73,183.92h-3.18l-19.18-34.61v34.61h-3.21v-40.64h3.21l19.2,34.67v-34.67h3.15v40.64Z"/><path class="cls-2" d="m602.57,172.56h-15.24l-3.46,11.36h-3.32l12.95-40.64h2.96l12.95,40.64h-3.32l-3.52-11.36Zm-14.32-2.99h13.4l-6.7-21.8-6.7,21.8Z"/><path class="cls-2" d="m651.63,179.21c-1.36,1.75-3.07,3.07-5.14,3.95s-4.33,1.33-6.78,1.33c-4.17,0-7.44-1.4-9.83-4.19-2.38-2.79-3.62-6.66-3.71-11.61v-9.88c0-5.19,1.13-9.17,3.39-11.93,2.26-2.76,5.49-4.15,9.67-4.15,3.74,0,6.67,1.03,8.79,3.1s3.31,5.04,3.57,8.93h-3.18c-.33-3.13-1.25-5.41-2.75-6.85-1.5-1.44-3.63-2.16-6.41-2.16-3.31,0-5.79,1.1-7.44,3.31-1.65,2.21-2.47,5.44-2.47,9.7v9.38c0,4.24.91,7.54,2.72,9.88,1.81,2.34,4.36,3.52,7.63,3.52,3.55,0,6.46-1.13,8.71-3.38v-10.58h-8.9v-2.99h12.11v14.63Z"/><path class="cls-2" d="m684.86,167.01h-9.49v16.92h-3.21v-40.64h11.14c3.7,0,6.57,1.06,8.61,3.17,2.04,2.11,3.06,5.05,3.06,8.81,0,2.62-.63,4.93-1.9,6.91-1.27,1.98-2.97,3.35-5.11,4.12l8.46,17.28v.36h-3.41l-8.15-16.92Zm-9.49-2.96h8.49c2.4,0,4.32-.82,5.75-2.47,1.43-1.65,2.15-3.75,2.15-6.32,0-2.85-.74-5.05-2.23-6.62-1.49-1.56-3.57-2.34-6.25-2.34h-7.9v17.75Z"/><path class="cls-2" d="m740.28,168.01c0,5.25-1.15,9.3-3.45,12.17-2.3,2.87-5.52,4.3-9.67,4.3s-7.34-1.43-9.67-4.3c-2.34-2.87-3.51-6.89-3.53-12.09v-8.85c0-5.23,1.16-9.29,3.49-12.18,2.33-2.89,5.54-4.34,9.66-4.34s7.41,1.45,9.71,4.35c2.31,2.9,3.46,6.99,3.46,12.25v8.68Zm-3.21-8.82c0-4.45-.86-7.79-2.57-10.02-1.71-2.23-4.18-3.35-7.4-3.35s-5.54,1.09-7.29,3.28-2.64,5.46-2.68,9.81v9.1c0,4.47.88,7.82,2.65,10.06,1.77,2.24,4.22,3.36,7.37,3.36s5.7-1.12,7.38-3.35c1.68-2.23,2.53-5.59,2.53-10.08v-8.82Z"/><path class="cls-2" d="m763.41,167.4v16.52h-3.18v-40.64h11.81c3.59,0,6.42,1.08,8.49,3.24,2.07,2.16,3.1,5.13,3.1,8.9s-1,6.81-3,8.88c-2,2.07-4.88,3.1-8.64,3.1h-8.57Zm0-2.99h8.62c2.68,0,4.75-.78,6.21-2.33s2.19-3.75,2.19-6.6-.74-5.09-2.22-6.73-3.53-2.46-6.16-2.46h-8.65v18.12Z"/><path class="cls-2" d="m821.43,164.47h-15.77v16.5h18.14v2.96h-21.33v-40.64h21.19v3.01h-18v15.21h15.77v2.96Z"/><path class="cls-2" d="m866.69,171.25c-.3,4.56-1.53,7.9-3.68,10.04-2.16,2.13-5.15,3.2-8.96,3.2s-7.03-1.48-9.29-4.45c-2.27-2.97-3.42-7-3.43-12.1v-8.82c0-5.12,1.16-9.13,3.48-12.03,2.32-2.9,5.48-4.35,9.5-4.35,3.8,0,6.74,1.09,8.82,3.27,2.08,2.18,3.28,5.52,3.57,10.02h-3.24c-.3-3.68-1.17-6.32-2.61-7.9-1.44-1.58-3.62-2.37-6.55-2.37-3.07,0-5.46,1.14-7.17,3.43-1.71,2.29-2.57,5.61-2.57,9.96v8.71c0,4.32.83,7.68,2.48,10.08,1.66,2.4,3.99,3.6,7.01,3.6,3.16,0,5.45-.79,6.87-2.37,1.41-1.58,2.26-4.21,2.54-7.9h3.24Z"/><path class="cls-2" d="m909.7,143.28v28.83c-.02,3.93-1.07,6.97-3.17,9.13-2.09,2.16-5.07,3.24-8.92,3.24s-6.9-1.07-8.97-3.2c-2.08-2.13-3.11-5.22-3.11-9.28v-28.72h3.18v28.61c0,6.42,2.97,9.63,8.9,9.63s8.8-3.12,8.88-9.35v-28.89h3.21Z"/><path class="cls-2" d="m947.98,172.56h-15.24l-3.46,11.36h-3.32l12.95-40.64h2.96l12.95,40.64h-3.32l-3.52-11.36Zm-14.32-2.99h13.4l-6.7-21.8-6.7,21.8Z"/><path class="cls-2" d="m984.93,167.01h-9.49v16.92h-3.21v-40.64h11.14c3.7,0,6.57,1.06,8.61,3.17,2.04,2.11,3.06,5.05,3.06,8.81,0,2.62-.63,4.93-1.9,6.91-1.27,1.98-2.97,3.35-5.11,4.12l8.46,17.28v.36h-3.41l-8.15-16.92Zm-9.49-2.96h8.49c2.4,0,4.32-.82,5.75-2.47,1.43-1.65,2.15-3.75,2.15-6.32,0-2.85-.74-5.05-2.23-6.62-1.49-1.56-3.57-2.34-6.25-2.34h-7.9v17.75Z"/><path class="cls-2" d="m1018.91,183.92h-3.18v-40.64h3.18v40.64Z"/><path class="cls-2" d="m1059.01,172.56h-15.24l-3.46,11.36h-3.32l12.95-40.64h2.96l12.95,40.64h-3.32l-3.52-11.36Zm-14.32-2.99h13.4l-6.7-21.8-6.7,21.8Z"/><path class="cls-3" d="m119.58,112.27h-44.44s-.08,0-.12,0c-32.22-.13-58.28-16.94-58.28-37.67,0-19.66,23.45-35.81,53.37-37.52,1.46-.17,2.95-.27,4.46-.27h44.63c10.03,0,18.51-7.86,18.78-17.89.29-10.4-8.06-18.92-18.4-18.92h-44.32C34.33,0,.52,32.7.03,73.63c-.27,22.73,9.69,43.19,25.55,57.05C9.96,144.33.05,164.38.02,186.7c0,.04,0,.08,0,.12,0,.59-.02,1.16-.02,1.72,0,0,0,0,0,0,0,.06,0,.12,0,.19,0,8.84,7.16,16,16,16s16-7.16,16-16c0-.36-.02-.71-.04-1.06,0,0,0,0,0,0-.2-3.48.21-6.99,1.3-10.31,5.32-16.26,23.71-28.27,41.27-28.27h44.73c9.97,0,18.57-8.15,18.73-18.11.16-10.3-8.14-18.7-18.4-18.7Zm-.13-101.1c4.45,0,8.05,3.61,8.05,8.05s-3.61,8.05-8.05,8.05-8.05-3.61-8.05-8.05,3.61-8.05,8.05-8.05Z"/><path class="cls-4" d="m202.87,16c0-8.84-7.16-16-16-16s-16,7.16-16,16c0,.36.02.71.04,1.06,0,0,0,0,0,0,.2,3.48-.21,6.99-1.3,10.31-5.32,16.26-23.71,28.27-41.27,28.27h-44.73c-9.97,0-18.57,8.15-18.73,18.11-.16,10.3,8.14,18.7,18.4,18.7h44.44s.08,0,.12,0c32.22.13,58.28,16.94,58.28,37.67,0,19.66-23.45,35.81-53.37,37.52-1.46.17-2.95.27-4.46.27h-44.63c-10.03,0-18.51,7.86-18.78,17.89-.29,10.4,8.06,18.92,18.4,18.92h44.32c40.93,0,74.74-32.7,75.24-73.63.27-22.73-9.69-43.19-25.55-57.05,15.62-13.65,25.52-33.7,25.56-56.02,0-.04,0-.08,0-.12,0-.59.02-1.16.02-1.72,0,0,0,0,0,0,0-.06,0-.12,0-.19Zm-120.37,178.47c-4.45,0-8.05-3.61-8.05-8.05s3.61-8.05,8.05-8.05,8.05,3.61,8.05,8.05-3.61,8.05-8.05,8.05Z"/><path class="cls-1" d="m127.74,92.45h-.24c.12,0,.24,0,.36,0-.04,0-.08,0-.12,0Z"/><path class="cls-2" d="m186.14,130.12c0-20.73-26.06-37.54-58.28-37.67,20.65.06,37.87,16.48,38.18,37.14.3,19.56-14.37,35.81-33.27,38.05,29.92-1.71,53.37-17.85,53.37-37.52Z"/><path class="cls-2" d="m16.72,74.42c0,20.73,26.06,37.54,58.28,37.67-20.65-.06-37.87-16.48-38.18-37.14-.3-19.56,14.37-35.81,33.27-38.05-29.92,1.71-53.37,17.85-53.37,37.52Z"/><circle class="cls-4" cx="119.44" cy="130.52" r="12.89"/><circle class="cls-3" cx="82.5" cy="74.49" r="12.89"/></g></svg>